<svg width="135" height="121" viewBox="0 0 135 121" fill="none" xmlns="http://www.w3.org/2000/svg">
<g clip-path="url(#clip0_0_22)" filter="url(#filter0_dd_0_22)">
<path d="M40.3333 31.6905H94.1111V45.1349H40.3333V31.6905Z" fill="#FF9933"/>
<path d="M40.3333 45.135H94.1111V58.5794H40.3333V45.135Z" fill="white"/>
<path d="M40.3333 58.5794H94.1111V72.0238H40.3333V58.5794Z" fill="#128807"/>
<path d="M67.2224 57.2349C70.1924 57.2349 72.6001 54.8272 72.6001 51.8571C72.6001 48.8871 70.1924 46.4793 67.2224 46.4793C64.2523 46.4793 61.8446 48.8871 61.8446 51.8571C61.8446 54.8272 64.2523 57.2349 67.2224 57.2349Z" fill="#000088"/>
<path d="M67.2221 56.5627C69.8209 56.5627 71.9277 54.4559 71.9277 51.8571C71.9277 49.2583 69.8209 47.1516 67.2221 47.1516C64.6233 47.1516 62.5166 49.2583 62.5166 51.8571C62.5166 54.4559 64.6233 56.5627 67.2221 56.5627Z" fill="white"/>
<path d="M67.2223 52.7983C67.742 52.7983 68.1634 52.3769 68.1634 51.8572C68.1634 51.3374 67.742 50.9161 67.2223 50.9161C66.7025 50.9161 66.2812 51.3374 66.2812 51.8572C66.2812 52.3769 66.7025 52.7983 67.2223 52.7983Z" fill="#000088"/>
<path d="M71.8555 52.713C71.9881 52.7305 72.1096 52.6372 72.1271 52.5047C72.1445 52.3722 72.0512 52.2506 71.9187 52.2332C71.7862 52.2157 71.6646 52.309 71.6472 52.4415C71.6298 52.574 71.723 52.6956 71.8555 52.713Z" fill="#000088"/>
<path d="M67.2218 56.5627L67.3832 53.7394L67.2218 52.395L67.0605 53.7394L67.2218 56.5627Z" fill="#000088"/>
<path d="M71.476 53.8831C71.5995 53.9343 71.7411 53.8757 71.7922 53.7522C71.8434 53.6287 71.7847 53.4871 71.6613 53.436C71.5378 53.3848 71.3962 53.4435 71.3451 53.567C71.2939 53.6904 71.3526 53.832 71.476 53.8831Z" fill="#000088"/>
<path d="M66.0041 56.4024L66.8907 53.717L67.0828 52.3766L66.579 53.6335L66.0041 56.4024Z" fill="#000088"/>
<path d="M70.8071 54.9152C70.9131 54.9965 71.065 54.9765 71.1464 54.8705C71.2278 54.7645 71.2078 54.6126 71.1017 54.5312C70.9957 54.4498 70.8438 54.4698 70.7624 54.5759C70.681 54.6819 70.701 54.8338 70.8071 54.9152Z" fill="#000088"/>
<path d="M64.8694 55.9323L66.4207 53.5679L66.9532 52.3229L66.1413 53.4066L64.8694 55.9323Z" fill="#000088"/>
<path d="M69.8937 55.7389C69.9751 55.8449 70.127 55.8649 70.233 55.7835C70.3391 55.7022 70.3591 55.5502 70.2777 55.4442C70.1964 55.3382 70.0444 55.3182 69.9384 55.3995C69.8324 55.4809 69.8124 55.6328 69.8937 55.7389Z" fill="#000088"/>
<path d="M63.8952 55.1845L66.0057 53.3022L66.8423 52.2374L65.7775 53.074L63.8952 55.1845Z" fill="#000088"/>
<path d="M68.7982 56.298C68.8493 56.4215 68.9909 56.4801 69.1144 56.4289C69.2379 56.3778 69.2965 56.2362 69.2454 56.1128C69.1942 55.9893 69.0526 55.9306 68.9292 55.9818C68.8057 56.0329 68.747 56.1745 68.7982 56.298Z" fill="#000088"/>
<path d="M63.1474 54.2099L65.6731 52.938L66.7568 52.1261L65.5118 52.6586L63.1474 54.2099Z" fill="#000088"/>
<path d="M67.595 56.5544C67.6125 56.6869 67.734 56.7802 67.8665 56.7628C67.999 56.7453 68.0923 56.6238 68.0749 56.4913C68.0574 56.3587 67.9359 56.2655 67.8034 56.2829C67.6708 56.3004 67.5776 56.4219 67.595 56.5544Z" fill="#000088"/>
<path d="M62.6774 53.0751L65.4463 52.5002L66.7032 51.9964L65.3628 52.1885L62.6774 53.0751Z" fill="#000088"/>
<path d="M66.3664 56.4907C66.3489 56.6233 66.4422 56.7448 66.5747 56.7623C66.7072 56.7797 66.8288 56.6864 66.8462 56.5539C66.8637 56.4214 66.7704 56.2998 66.6379 56.2824C66.5054 56.265 66.3838 56.3582 66.3664 56.4907Z" fill="#000088"/>
<path d="M62.5169 51.8572L65.3402 52.0185L66.6847 51.8572L65.3402 51.6958L62.5169 51.8572Z" fill="#000088"/>
<path d="M65.1966 56.1114C65.1454 56.2348 65.2041 56.3764 65.3275 56.4276C65.451 56.4787 65.5926 56.4201 65.6437 56.2966C65.6949 56.1731 65.6362 56.0315 65.5128 55.9804C65.3893 55.9292 65.2477 55.9879 65.1966 56.1114Z" fill="#000088"/>
<path d="M62.6773 50.6393L65.3627 51.5258L66.7031 51.718L65.4462 51.2142L62.6773 50.6393Z" fill="#000088"/>
<path d="M64.1643 55.442C64.0829 55.5481 64.1029 55.7 64.209 55.7813C64.315 55.8627 64.4669 55.8427 64.5483 55.7367C64.6296 55.6306 64.6096 55.4787 64.5036 55.3974C64.3976 55.316 64.2457 55.336 64.1643 55.442Z" fill="#000088"/>
<path d="M63.1472 49.5044L65.5116 51.0558L66.7566 51.5883L65.6729 50.7763L63.1472 49.5044Z" fill="#000088"/>
<path d="M63.3406 54.5284C63.2346 54.6097 63.2146 54.7617 63.296 54.8677C63.3773 54.9737 63.5292 54.9937 63.6353 54.9124C63.7413 54.831 63.7613 54.6791 63.6799 54.5731C63.5986 54.467 63.4467 54.447 63.3406 54.5284Z" fill="#000088"/>
<path d="M63.8949 48.5298L65.7773 50.6403L66.842 51.4769L66.0054 50.4121L63.8949 48.5298Z" fill="#000088"/>
<path d="M62.781 53.4327C62.6575 53.4839 62.5988 53.6254 62.65 53.7489C62.7011 53.8724 62.8427 53.931 62.9662 53.8799C63.0897 53.8287 63.1483 53.6872 63.0972 53.5637C63.046 53.4402 62.9044 53.3816 62.781 53.4327Z" fill="#000088"/>
<path d="M64.8692 47.782L66.1411 50.3078L66.9531 51.3914L66.4206 50.1464L64.8692 47.782Z" fill="#000088"/>
<path d="M62.5247 52.2297C62.3922 52.2471 62.299 52.3687 62.3164 52.5012C62.3338 52.6337 62.4554 52.727 62.5879 52.7095C62.7204 52.6921 62.8137 52.5705 62.7963 52.438C62.7788 52.3055 62.6573 52.2122 62.5247 52.2297Z" fill="#000088"/>
<path d="M66.004 47.3119L66.5789 50.0808L67.0827 51.3377L66.8906 49.9973L66.004 47.3119Z" fill="#000088"/>
<path d="M62.5882 51.0013C62.4557 50.9838 62.3342 51.0771 62.3167 51.2096C62.2993 51.3421 62.3926 51.4637 62.5251 51.4811C62.6576 51.4986 62.7791 51.4053 62.7966 51.2728C62.814 51.1403 62.7208 51.0187 62.5882 51.0013Z" fill="#000088"/>
<path d="M67.2217 47.1516L67.0604 49.9749L67.2217 51.3194L67.383 49.9749L67.2217 47.1516Z" fill="#000088"/>
<path d="M62.9675 49.8312C62.844 49.78 62.7025 49.8387 62.6513 49.9621C62.6002 50.0856 62.6588 50.2272 62.7823 50.2783C62.9058 50.3295 63.0473 50.2708 63.0985 50.1474C63.1496 50.0239 63.091 49.8823 62.9675 49.8312Z" fill="#000088"/>
<path d="M68.4397 47.3119L67.5531 49.9973L67.361 51.3377L67.8648 50.0808L68.4397 47.3119Z" fill="#000088"/>
<path d="M63.6374 48.7991C63.5314 48.7177 63.3795 48.7377 63.2981 48.8437C63.2168 48.9498 63.2368 49.1017 63.3428 49.1831C63.4488 49.2644 63.6008 49.2444 63.6821 49.1384C63.7635 49.0324 63.7435 48.8804 63.6374 48.7991Z" fill="#000088"/>
<path d="M69.5752 47.782L68.0238 50.1464L67.4913 51.3914L68.3032 50.3078L69.5752 47.782Z" fill="#000088"/>
<path d="M64.551 47.9755C64.4697 47.8694 64.3178 47.8494 64.2117 47.9308C64.1057 48.0122 64.0857 48.1641 64.1671 48.2701C64.2484 48.3761 64.4003 48.3961 64.5064 48.3148C64.6124 48.2334 64.6324 48.0815 64.551 47.9755Z" fill="#000088"/>
<path d="M70.5496 48.5298L68.4391 50.4122L67.6025 51.4769L68.6673 50.6403L70.5496 48.5298Z" fill="#000088"/>
<path d="M65.6468 47.4164C65.5957 47.2929 65.4541 47.2343 65.3306 47.2854C65.2072 47.3366 65.1485 47.4782 65.1997 47.6016C65.2508 47.7251 65.3924 47.7837 65.5159 47.7326C65.6393 47.6815 65.698 47.5399 65.6468 47.4164Z" fill="#000088"/>
<path d="M71.2977 49.5044L68.7719 50.7763L67.6883 51.5883L68.9332 51.0558L71.2977 49.5044Z" fill="#000088"/>
<path d="M66.8505 47.1599C66.833 47.0274 66.7115 46.9341 66.579 46.9515C66.4465 46.969 66.3532 47.0906 66.3706 47.2231C66.3881 47.3556 66.5096 47.4488 66.6421 47.4314C66.7747 47.414 66.8679 47.2924 66.8505 47.1599Z" fill="#000088"/>
<path d="M71.7683 50.6393L68.9994 51.2141L67.7426 51.718L69.083 51.5258L71.7683 50.6393Z" fill="#000088"/>
<path d="M68.0781 47.2236C68.0956 47.0911 68.0023 46.9695 67.8698 46.9521C67.7373 46.9346 67.6157 47.0279 67.5983 47.1604C67.5808 47.2929 67.6741 47.4145 67.8066 47.4319C67.9391 47.4494 68.0607 47.3561 68.0781 47.2236Z" fill="#000088"/>
<path d="M71.9277 51.8572L69.1043 51.6958L67.7599 51.8572L69.1043 52.0185L71.9277 51.8572Z" fill="#000088"/>
<path d="M69.2479 47.603C69.2991 47.4795 69.2405 47.3379 69.117 47.2868C68.9935 47.2356 68.8519 47.2943 68.8008 47.4177C68.7496 47.5412 68.8083 47.6828 68.9318 47.7339C69.0552 47.7851 69.1968 47.7264 69.2479 47.603Z" fill="#000088"/>
<path d="M71.7672 53.0751L69.0819 52.1885L67.7415 51.9964L68.9984 52.5002L71.7672 53.0751Z" fill="#000088"/>
<path d="M70.2802 48.2723C70.3616 48.1663 70.3416 48.0143 70.2356 47.933C70.1295 47.8516 69.9776 47.8716 69.8962 47.9776C69.8149 48.0837 69.8349 48.2356 69.9409 48.317C70.0469 48.3983 70.1989 48.3783 70.2802 48.2723Z" fill="#000088"/>
<path d="M71.2974 54.2099L68.9329 52.6586L67.6879 52.1261L68.7716 52.938L71.2974 54.2099Z" fill="#000088"/>
<path d="M71.1044 49.1859C71.2104 49.1045 71.2304 48.9526 71.1491 48.8466C71.0677 48.7405 70.9158 48.7205 70.8097 48.8019C70.7037 48.8833 70.6837 49.0352 70.7651 49.1412C70.8464 49.2472 70.9983 49.2672 71.1044 49.1859Z" fill="#000088"/>
<path d="M70.5501 55.1845L68.6678 53.074L67.603 52.2374L68.4396 53.3022L70.5501 55.1845Z" fill="#000088"/>
<path d="M71.6631 50.2815C71.7866 50.2304 71.8452 50.0888 71.794 49.9653C71.7429 49.8419 71.6013 49.7832 71.4779 49.8344C71.3544 49.8855 71.2957 50.0271 71.3469 50.1506C71.398 50.274 71.5396 50.3327 71.6631 50.2815Z" fill="#000088"/>
<path d="M69.5751 55.9323L68.3032 53.4066L67.4912 52.3229L68.0237 53.5679L69.5751 55.9323Z" fill="#000088"/>
<path d="M71.919 51.4846C72.0516 51.4671 72.1448 51.3456 72.1274 51.2131C72.1099 51.0806 71.9884 50.9873 71.8559 51.0047C71.7234 51.0222 71.6301 51.1437 71.6475 51.2762C71.665 51.4088 71.7865 51.502 71.919 51.4846Z" fill="#000088"/>
<path d="M68.4398 56.4024L67.8649 53.6335L67.3611 52.3766L67.5532 53.717L68.4398 56.4024Z" fill="#000088"/>
</g>
<defs>
<filter id="filter0_dd_0_22" x="-2.86564e-06" y="1.43282e-05" width="134.445" height="121" filterUnits="userSpaceOnUse" color-interpolation-filters="sRGB">
<feFlood flood-opacity="0" result="BackgroundImageFix"/>
<feColorMatrix in="SourceAlpha" type="matrix" values="0 0 0 0 0 0 0 0 0 0 0 0 0 0 0 0 0 0 127 0" result="hardAlpha"/>
<feMorphology radius="0.958769" operator="erode" in="SourceAlpha" result="effect1_dropShadow_0_22"/>
<feOffset dy="4.31446"/>
<feGaussianBlur stdDeviation="10.5465"/>
<feColorMatrix type="matrix" values="0 0 0 0 0 0 0 0 0 0 0 0 0 0 0 0 0 0 0.14 0"/>
<feBlend mode="normal" in2="BackgroundImageFix" result="effect1_dropShadow_0_22"/>
<feColorMatrix in="SourceAlpha" type="matrix" values="0 0 0 0 0 0 0 0 0 0 0 0 0 0 0 0 0 0 127 0" result="hardAlpha"/>
<feMorphology radius="1.43815" operator="erode" in="SourceAlpha" result="effect2_dropShadow_0_22"/>
<feOffset dy="1.91754"/>
<feGaussianBlur stdDeviation="3.35569"/>
<feColorMatrix type="matrix" values="0 0 0 0 0 0 0 0 0 0 0 0 0 0 0 0 0 0 0.12 0"/>
<feBlend mode="normal" in2="effect1_dropShadow_0_22" result="effect2_dropShadow_0_22"/>
<feBlend mode="normal" in="SourceGraphic" in2="effect2_dropShadow_0_22" result="shape"/>
</filter>
<clipPath id="clip0_0_22">
<rect width="26.8455" height="20.1342" fill="white" transform="translate(40.3333 31.6905) scale(2.00323)"/>
</clipPath>
</defs>
</svg>
