<svg width="33" height="42" viewBox="0 0 33 42" fill="none" xmlns="http://www.w3.org/2000/svg">
<path d="M30 39H20.7262C22.2841 37.609 23.7532 36.1217 25.125 34.5469C30.2719 28.6275 33 22.3875 33 16.5C33 12.1239 31.2616 7.92709 28.1673 4.83274C25.0729 1.73839 20.8761 0 16.5 0C12.1239 0 7.92709 1.73839 4.83274 4.83274C1.73839 7.92709 0 12.1239 0 16.5C0 22.3875 2.72062 28.6275 7.875 34.5469C9.24677 36.1217 10.7159 37.609 12.2738 39H3C2.60218 39 2.22064 39.158 1.93934 39.4393C1.65804 39.7206 1.5 40.1022 1.5 40.5C1.5 40.8978 1.65804 41.2794 1.93934 41.5607C2.22064 41.842 2.60218 42 3 42H30C30.3978 42 30.7794 41.842 31.0607 41.5607C31.342 41.2794 31.5 40.8978 31.5 40.5C31.5 40.1022 31.342 39.7206 31.0607 39.4393C30.7794 39.158 30.3978 39 30 39ZM3 16.5C3 12.9196 4.42232 9.4858 6.95406 6.95406C9.4858 4.42232 12.9196 3 16.5 3C20.0804 3 23.5142 4.42232 26.0459 6.95406C28.5777 9.4858 30 12.9196 30 16.5C30 27.2306 19.5994 36.1875 16.5 38.625C13.4006 36.1875 3 27.2306 3 16.5ZM24 16.5C24 15.0166 23.5601 13.5666 22.736 12.3332C21.9119 11.0999 20.7406 10.1386 19.3701 9.5709C17.9997 9.00325 16.4917 8.85472 15.0368 9.14411C13.582 9.4335 12.2456 10.1478 11.1967 11.1967C10.1478 12.2456 9.4335 13.582 9.14411 15.0368C8.85472 16.4917 9.00325 17.9997 9.5709 19.3701C10.1386 20.7406 11.0999 21.9119 12.3332 22.736C13.5666 23.5601 15.0166 24 16.5 24C18.4891 24 20.3968 23.2098 21.8033 21.8033C23.2098 20.3968 24 18.4891 24 16.5ZM12 16.5C12 15.61 12.2639 14.74 12.7584 13.9999C13.2529 13.2599 13.9557 12.6831 14.7779 12.3425C15.6002 12.0019 16.505 11.9128 17.3779 12.0865C18.2508 12.2601 19.0526 12.6887 19.682 13.318C20.3113 13.9474 20.7399 14.7492 20.9135 15.6221C21.0872 16.495 20.9981 17.3998 20.6575 18.2221C20.3169 19.0443 19.7401 19.7471 19.0001 20.2416C18.26 20.7361 17.39 21 16.5 21C15.3065 21 14.1619 20.5259 13.318 19.682C12.4741 18.8381 12 17.6935 12 16.5Z" fill="#85898E"/>
</svg>
