<svg width="38" height="38" viewBox="0 0 38 38" fill="none" xmlns="http://www.w3.org/2000/svg">
<path d="M36.1703 25.547L27.2194 21.5361L27.1947 21.5247C26.73 21.326 26.2231 21.2462 25.7199 21.2927C25.2166 21.3391 24.7329 21.5103 24.3124 21.7907C24.2629 21.8234 24.2153 21.8589 24.1699 21.8971L19.5453 25.8396C16.6155 24.4165 13.5907 21.4145 12.1676 18.5227L16.1158 13.8278C16.1538 13.7803 16.1899 13.7328 16.2241 13.6815C16.4985 13.2622 16.665 12.7815 16.7088 12.2823C16.7525 11.7831 16.6722 11.2808 16.4749 10.8201V10.7973L12.4526 1.83122C12.1918 1.22942 11.7434 0.728104 11.1743 0.402109C10.6052 0.0761131 9.94586 -0.0570787 9.29482 0.0224155C6.72026 0.361198 4.35706 1.62558 2.64659 3.5794C0.936123 5.53322 -0.00463777 8.04287 1.71924e-05 10.6396C1.71924e-05 25.7256 12.274 37.9996 27.36 37.9996C29.9568 38.0043 32.4664 37.0635 34.4202 35.353C36.3741 33.6426 37.6384 31.2794 37.9772 28.7048C38.0569 28.054 37.9239 27.3949 37.5983 26.8258C37.2727 26.2567 36.7718 25.8081 36.1703 25.547ZM27.36 34.9596C20.9121 34.9526 14.7303 32.388 10.171 27.8287C5.6116 23.2693 3.04706 17.0875 3.04002 10.6396C3.03287 8.78425 3.70131 6.98971 4.92052 5.59114C6.13972 4.19257 7.82631 3.2856 9.66532 3.03962C9.66457 3.0472 9.66457 3.05483 9.66532 3.06242L13.6553 11.9924L9.72802 16.693C9.68816 16.7389 9.65195 16.7878 9.61972 16.8393C9.3338 17.2781 9.16606 17.7832 9.13278 18.3059C9.09949 18.8285 9.20177 19.3508 9.42972 19.8223C11.1511 23.343 14.6984 26.8637 18.2571 28.5832C18.732 28.809 19.2574 28.9078 19.7819 28.8698C20.3065 28.8318 20.8122 28.6585 21.2496 28.3666C21.2984 28.3338 21.3453 28.2982 21.3902 28.2602L26.0091 24.3196L34.9391 28.3191C34.9391 28.3191 34.9543 28.3191 34.96 28.3191C34.717 30.1607 33.8114 31.8507 32.4126 33.0729C31.0138 34.2952 29.2176 34.9659 27.36 34.9596Z" fill="#85898E"/>
</svg>
