<svg width="161" height="49" viewBox="0 0 161 49" fill="none" xmlns="http://www.w3.org/2000/svg">
<g clip-path="url(#clip0_188_1297)">
<path d="M12.4161 1.67585C12.5227 1.61975 12.6293 1.56653 12.7374 1.51331C12.8454 1.46009 12.9535 1.40831 13.063 1.35797C13.1725 1.30763 13.2819 1.25872 13.3929 1.21125C13.5038 1.16379 13.6147 1.11776 13.7257 1.07317C13.8366 1.02858 13.949 0.983989 14.0614 0.942276C14.1737 0.900563 14.2875 0.858849 14.3999 0.820013C14.5137 0.779738 14.6275 0.74234 14.7428 0.706381C14.8566 0.668983 14.9719 0.634461 15.0871 0.601379C15.2024 0.566857 15.3176 0.535213 15.4343 0.503568C15.551 0.471924 15.6677 0.443156 15.7844 0.414389C15.9011 0.385621 16.0178 0.35973 16.1359 0.333839C16.2541 0.307948 16.3708 0.284934 16.4889 0.26192C16.607 0.238906 16.7252 0.218768 16.8433 0.198631C16.9614 0.178494 17.081 0.161233 17.1992 0.143972C17.3187 0.126712 17.4369 0.112328 17.5564 0.0979441C17.676 0.0835603 17.7956 0.0720532 17.9152 0.0605461C18.0347 0.0504774 18.1543 0.0404087 18.2753 0.0332168C18.3949 0.0245865 18.5159 0.018833 18.6355 0.0130794C18.7551 0.0073259 18.8761 0.00444913 18.9957 0.00301075C19.1153 0.00157236 19.2363 0.000133976 19.3558 0.00157236C19.4754 0.00157236 19.5964 0.00444913 19.716 0.00876428C19.8356 0.0130794 19.9566 0.0173946 20.0762 0.0245865C20.1958 0.0317784 20.3168 0.0389704 20.4364 0.049039C20.5559 0.0591077 20.6755 0.0691764 20.7951 0.0821219C20.9147 0.0950673 21.0342 0.109451 21.1538 0.123835C21.2734 0.139657 21.3915 0.156918 21.5111 0.174178C21.6292 0.192877 21.7488 0.211576 21.8669 0.233152C21.9851 0.254728 22.1032 0.277742 22.2214 0.300756C22.3395 0.325209 22.4562 0.3511 22.5743 0.376991C22.691 0.40432 22.8077 0.433088 22.9244 0.461855C23.0411 0.492061 23.1564 0.522267 23.273 0.55535C23.3883 0.588433 23.5036 0.621516 23.6188 0.657476C24.0251 0.78693 24.4241 0.935084 24.816 1.1005C25.2079 1.26735 25.5925 1.45003 25.9686 1.6514C26.0464 1.60537 26.1241 1.55934 26.2034 1.51475C26.2826 1.47016 26.3619 1.42701 26.4411 1.38386C26.5218 1.34071 26.601 1.30043 26.6831 1.25872C26.7638 1.21845 26.8459 1.17817 26.928 1.13933C27.0102 1.1005 27.0923 1.0631 27.1744 1.02714C27.2565 0.989742 27.3401 0.955221 27.4236 0.9207C27.5072 0.886179 27.5908 0.853096 27.6758 0.820013C27.7608 0.78693 27.8458 0.756724 27.9308 0.72508C28.0158 0.694874 28.1022 0.664667 28.1872 0.637338C28.2736 0.608571 28.3601 0.581241 28.4465 0.55535C28.533 0.529459 28.6194 0.503568 28.7073 0.480554C28.7952 0.456102 28.8816 0.433088 28.9695 0.411512C29.0574 0.389936 29.1452 0.36836 29.2331 0.348223C29.321 0.328086 29.4103 0.309387 29.4997 0.292126C29.589 0.274865 29.6769 0.257605 29.7662 0.243221C29.8555 0.227399 29.9448 0.213015 30.0341 0.200069C30.1235 0.187124 30.2128 0.174178 30.3036 0.16411C30.3929 0.152603 30.4836 0.142534 30.5744 0.133904C30.6652 0.125273 30.7545 0.118081 30.8452 0.11089C30.936 0.103698 31.0268 0.0993825 31.1161 0.093629C31.2069 0.0893138 31.2976 0.086437 31.3884 0.0835603C31.4791 0.0806835 31.5699 0.0806835 31.6607 0.0806835C31.7514 0.0806835 31.8422 0.0806835 31.933 0.0835603C32.0237 0.086437 32.1145 0.0893138 32.2052 0.093629C32.296 0.0979441 32.3868 0.103698 32.4761 0.11089C32.5669 0.118081 32.6562 0.125273 32.7469 0.133904C32.8377 0.142534 32.927 0.152603 33.0178 0.16411C33.1071 0.175617 33.1979 0.187124 33.2872 0.200069C33.3765 0.213015 33.4658 0.227399 33.5552 0.243221C33.6445 0.259043 33.7338 0.274865 33.8217 0.293564C33.911 0.310825 33.9989 0.329524 34.0868 0.349661C34.1747 0.369799 34.264 0.389936 34.3519 0.41295C35.1413 0.608571 36.0187 0.861726 36.474 1.59243C36.7808 2.08579 36.9609 2.66978 37.128 3.22355C37.7086 5.13229 37.978 7.07267 37.4752 9.03175C37.0949 10.5118 36.3976 11.3634 35.2263 12.2883C35.5793 13.2563 35.9827 14.2445 36.4941 15.1406C36.7736 15.6296 37.0805 16.1589 37.4263 16.6034C37.6841 16.9357 37.9939 17.2492 38.2186 17.6045C38.3152 17.7584 38.4045 17.9325 38.4232 18.1166C38.4924 18.8473 37.9074 19.8844 37.6078 20.5561C36.4019 22.7798 34.5622 24.4973 32.4574 25.8666C30.8856 26.7642 29.0775 27.5912 27.2997 27.9724C27.5331 28.1536 27.719 28.319 27.9106 28.5463C28.4696 28.4255 29.0646 28.2601 29.6408 28.2615C30.6983 28.2629 31.3725 28.88 32.0669 29.5819C32.5006 29.4208 32.9991 29.2641 33.4615 29.2324C33.7108 29.2152 33.9427 29.2295 34.1343 29.4021C34.3432 29.9703 34.2092 32.5206 34.2092 33.2743C34.9872 33.5807 35.6441 34.0251 36.0346 34.7875C36.4927 35.6821 36.5302 36.8961 36.2276 37.8469C35.902 38.8653 35.2163 39.478 34.287 39.9527C34.1977 40.9797 34.2568 42.0484 34.2597 43.0783C34.2597 43.5558 34.3101 44.101 34.1905 44.5642C33.6848 44.8375 32.9962 44.9626 32.4415 45.1251C31.5036 45.4013 30.5686 45.6832 29.6351 45.9709L22.8869 48.1011C21.9678 48.3845 20.8585 48.8304 19.9292 48.9498C19.7376 48.9728 19.546 48.9872 19.353 48.9944C19.1599 49.0016 18.9683 48.9987 18.7753 48.9886C18.5822 48.9786 18.3906 48.9599 18.2004 48.9325C18.0088 48.9052 17.8201 48.8707 17.6328 48.8261C16.7381 48.6103 15.8723 48.1342 14.9877 47.8494C12.4161 47.0339 9.83585 46.2413 7.25128 45.4703C6.76721 45.3251 4.39297 44.79 4.19848 44.58C3.91467 44.2736 4.02416 40.3828 4.02128 39.7657C3.15831 39.3428 2.53306 38.7833 2.18009 37.8728C1.8084 36.9134 1.79975 35.7526 2.23052 34.8105C2.60509 33.9877 3.21018 33.49 4.04865 33.1779C4.04001 32.3681 3.95501 30.1889 4.14806 29.5244C4.19128 29.3748 4.26187 29.2065 4.41458 29.1418C4.88424 28.9404 5.74433 29.3763 6.19958 29.5575C6.41568 29.1663 6.63467 28.8369 7.02077 28.588C8.05517 27.9206 9.43966 28.3521 10.536 28.6067C10.768 28.378 11.0143 28.1637 11.2564 27.9465C10.9797 27.8832 10.7046 27.8185 10.4294 27.7523C7.20085 26.9655 4.11636 25.3589 2.06772 22.682C1.60382 22.0765 1.23933 21.3774 0.843144 20.7273C0.624161 20.1749 0.272635 19.7161 0.0853473 19.1292C-0.0673645 18.469 -0.0284662 17.954 0.343229 17.3701C0.782635 16.6768 1.3373 16.0583 1.77958 15.3664C2.38899 14.4142 2.77077 13.3411 3.16407 12.2868C2.79526 11.9919 2.39619 11.7028 2.0778 11.3547C1.26382 10.4673 0.815771 9.06339 0.684669 7.8868C0.471449 5.98237 0.804245 2.90279 2.06628 1.3666C2.82696 0.44028 4.26619 0.179932 5.40145 0.0792451C7.69356 -0.123567 10.4453 0.469047 12.4175 1.67441" fill="#353535"/>
<path d="M29.5096 29.3919C29.5427 29.3904 29.5759 29.3876 29.6075 29.3876C30.0556 29.3804 30.3985 29.727 30.6881 30.0233L20.2129 33.3589C20.7719 31.6847 29.5081 29.3919 29.5081 29.3919" fill="#FEFEFE"/>
<path d="M17.9957 33.3719L7.52051 30.0363C7.81008 29.74 8.15297 29.3933 8.60102 29.4005C8.63415 29.4005 8.66729 29.4034 8.69898 29.4048C8.69898 29.4048 17.4352 31.6976 17.9942 33.3719" fill="#FEFEFE"/>
<path d="M31.1147 35.5067C31.508 34.9126 31.9157 34.4077 32.7672 34.3257C33.3665 34.2682 34.0162 34.3862 34.4859 34.7803C34.9498 35.1701 35.199 35.7426 35.235 36.3409C35.2768 37.0472 35.0578 37.8009 34.5723 38.3259C34.5478 38.3518 34.5219 38.3791 34.496 38.4036C34.47 38.4295 34.4427 38.4539 34.4153 38.4769C34.3879 38.5014 34.3605 38.5244 34.3317 38.5474C34.3029 38.5704 34.2741 38.592 34.2439 38.6136C34.2136 38.6351 34.1848 38.6553 34.1531 38.674C34.1228 38.6941 34.0911 38.7128 34.0594 38.7301C34.0278 38.7473 33.9961 38.7646 33.9629 38.7819C33.9312 38.7977 33.8981 38.8135 33.865 38.8279C33.8318 38.8423 33.7987 38.8567 33.7641 38.8696C33.7295 38.8825 33.6964 38.8941 33.6618 38.9056C33.6272 38.9171 33.5927 38.9271 33.5567 38.9358C33.5221 38.9458 33.4861 38.953 33.45 38.9617C33.414 38.9688 33.3794 38.976 33.3434 38.9818C33.3074 38.9875 33.2714 38.9919 33.2354 38.9962C33.1994 39.0005 33.1633 39.0034 33.1273 39.0048C33.0913 39.0062 33.0539 39.0077 33.0178 39.0077C32.4574 39.0134 31.9517 38.7819 31.5613 38.3863C31.3193 38.1418 31.1695 37.8699 31.0412 37.5549C32.0511 37.8167 32.9962 37.6829 33.5178 37.1853C33.221 37.2313 32.9228 37.2831 32.6231 37.3032C32.1909 37.332 31.5224 37.2816 31.1392 36.9911C31.034 36.8789 30.9879 36.7624 30.985 36.6113C30.9822 36.4632 31.0139 36.3639 31.0744 36.2719C31.1565 36.1467 31.2818 36.0547 31.423 36.0058C32.0857 35.7771 32.9516 35.7943 33.6287 35.744C32.4372 35.1917 31.1133 35.5052 31.1133 35.5052" fill="#FEFEFE"/>
<path d="M32.3923 3.88942C35.7376 2.18349 36.2548 7.97011 34.1456 9.59836C33.1732 7.95717 32.0927 6.38789 30.7183 5.05307C31.26 4.5295 31.6979 4.21881 32.3909 3.88942" fill="#FEFEFE"/>
<path d="M31.1911 13.134C31.4562 13.2879 31.6723 13.7137 31.7976 13.9927C32.2846 15.0773 32.3941 16.4466 31.9532 17.5628C31.4778 18.7667 30.4953 19.5262 29.3398 20.0311C29.2318 20.0728 29.1655 20.1001 29.0488 20.0843C29.1439 19.8642 30.2835 19.0932 30.5716 18.7725C30.8972 18.4114 31.158 17.9339 31.3381 17.4837C31.9273 16.0065 31.8063 14.5623 31.1911 13.1326" fill="#5C4D2A"/>
<path d="M7.76992 5.05314C6.39695 6.38652 5.315 7.95724 4.34255 9.59844C2.23339 7.97019 2.7506 2.185 6.09585 3.88949C6.78882 4.21888 7.22678 4.52957 7.76848 5.05314" fill="#FEFEFE"/>
<mask id="mask0_188_1297" style="mask-type:luminance" maskUnits="userSpaceOnUse" x="1" y="1" width="37" height="47">
<path d="M29.1525 32.0055C26.5809 32.8311 24.0367 33.7056 21.4334 34.4291L21.4262 42.8178C21.4248 44.2965 21.3902 45.7895 21.4377 47.2682C22.305 47.0222 23.1464 46.6942 24.0151 46.4454C25.8937 45.7996 27.8026 45.2702 29.6928 44.6647C30.7877 44.3137 31.8898 43.8563 32.9963 43.56C32.9833 42.4568 32.992 41.3521 32.9718 40.2488C31.7962 39.9482 30.8842 39.5584 30.2403 38.4768C29.7216 37.608 29.6481 36.5306 29.9089 35.564C30.1394 34.7068 30.6437 34.0005 31.4259 33.5647C31.9172 33.2914 32.4229 33.1864 32.9804 33.1706C32.979 32.8886 33.0265 31.0231 32.907 30.8878C31.6406 31.1094 30.3757 31.6128 29.1525 32.0069M5.38426 33.1662C5.67816 33.2669 5.97206 33.3705 6.25731 33.4928C7.18655 33.8941 7.81036 34.4982 8.1835 35.4461C8.50477 36.5335 8.50333 37.5619 7.94578 38.5717C7.59138 39.2146 7.04968 39.7238 6.33223 39.9353C5.99367 40.036 5.64646 40.0345 5.29638 40.0317C5.29638 41.2025 5.26613 42.3834 5.32087 43.5528C6.06714 43.8808 6.88256 44.0865 7.66341 44.3195C8.63731 44.6115 9.60977 44.9121 10.5793 45.2199L14.6392 46.4886C15.3451 46.7173 16.0438 46.9977 16.7598 47.1919L16.757 45.3278C16.7786 41.7102 16.7224 38.0913 16.7613 34.4723C15.397 33.9257 13.9145 33.5503 12.5084 33.1159C10.0823 32.3895 7.67638 31.5984 5.29206 30.7454C5.3396 31.5509 5.32519 32.3579 5.38426 33.1634M2.71469 19.6915C2.59223 19.8238 2.47841 19.9619 2.37613 20.1086C2.2724 20.2567 2.18019 20.4092 2.09808 20.5689C3.07774 20.041 3.99401 19.6857 5.11918 19.5994C5.41451 19.5778 6.22129 19.6426 5.96341 19.3592C5.94901 19.0715 5.83231 18.7867 5.79485 18.5019C4.60197 18.5393 3.55172 18.791 2.71469 19.6915ZM32.3725 19.3592C32.1146 19.6426 32.9214 19.5778 33.2153 19.5994C34.3419 19.6857 35.2581 20.041 36.2378 20.5689C36.1557 20.4092 36.0635 20.2567 35.9598 20.1086C35.8575 19.9619 35.7436 19.8238 35.6212 19.6915C34.7842 18.791 33.7339 18.5393 32.541 18.5019C32.5036 18.7867 32.3869 19.0715 32.3725 19.3592ZM1.69181 17.5555C1.56935 17.6864 1.45553 17.8259 1.35181 17.9726C1.24952 18.1193 1.15587 18.2732 1.0752 18.4329C2.05486 17.905 2.97113 17.5483 4.0963 17.4634C4.39163 17.4404 5.19697 17.5051 4.94053 17.2218C4.92468 16.9355 4.80943 16.6493 4.77053 16.3645C3.57909 16.4019 2.52884 16.655 1.69181 17.5555ZM33.3953 17.2218C33.1389 17.5051 33.9442 17.4404 34.2396 17.4634C35.3647 17.5483 36.281 17.905 37.2607 18.4329C37.1786 18.2732 37.0864 18.1193 36.9841 17.9726C36.8803 17.8259 36.7665 17.6864 36.6441 17.5555C35.807 16.655 34.7568 16.4019 33.5639 16.3645C33.5264 16.6493 33.4112 16.9355 33.3953 17.2218ZM3.41197 1.82241C3.3385 1.84686 3.26502 1.87563 3.19731 1.91303C2.97113 2.03817 2.89477 2.18488 2.78816 2.46537C2.38189 3.52402 2.32714 5.02281 2.35164 6.16345C2.49714 5.50323 2.62392 4.89336 2.84002 4.27629C2.95816 3.94115 3.14257 3.62902 3.40333 3.38737C3.60214 3.2047 3.83121 3.06661 4.13663 2.98031C5.54706 2.58331 7.26578 3.46073 8.44426 4.14684C9.39078 3.46217 10.2509 2.80195 11.2882 2.24386C9.79417 1.56494 8.33621 1.22404 6.85807 1.22404C5.73002 1.22404 4.58901 1.42398 3.41197 1.82241ZM27.2019 2.24386C28.2392 2.80195 29.0992 3.46217 30.0458 4.14684C31.2242 3.46073 32.943 2.58331 34.3534 2.98031C34.6588 3.06661 34.8879 3.2047 35.0867 3.38737C35.3475 3.62902 35.5319 3.94115 35.65 4.27629C35.8661 4.89336 35.9929 5.50323 36.1384 6.16345C36.1643 5.02281 36.1081 3.52402 35.7019 2.46537C35.5953 2.18488 35.5189 2.03817 35.2927 1.91303C35.225 1.87563 35.1515 1.84686 35.0781 1.82241C33.901 1.42398 32.76 1.22404 31.632 1.22404C30.1538 1.22404 28.6959 1.56494 27.2019 2.24386ZM20.0705 3.3773C21.1006 3.60888 23.4215 3.68656 24.2701 4.58267C24.5885 4.91925 24.5424 5.47591 24.1491 5.72331C24.0295 5.7981 23.8912 5.83838 23.7457 5.81824C22.5024 5.46296 21.2879 4.8574 19.9524 4.85165C19.9365 5.48166 19.9581 6.11886 19.9654 6.75031C20.7448 6.79059 23.3077 7.14587 22.9951 8.19589C22.9058 8.49364 22.6119 8.68494 22.3007 8.672C21.5559 8.64035 20.5805 8.10527 19.8976 8.12685C19.8717 8.66912 19.8731 9.21139 19.8501 9.75366L19.8458 9.76085C19.5807 10.2787 18.8387 10.2787 18.5737 9.76085L18.5693 9.75366C18.5463 9.21139 18.5477 8.66912 18.5232 8.12685C17.8389 8.10527 16.8636 8.64035 16.1187 8.672C15.8076 8.68494 15.5137 8.49364 15.4258 8.19589C15.1132 7.14587 17.6747 6.79059 18.4555 6.75031C18.4613 6.11886 18.4843 5.48166 18.467 4.85165C17.1315 4.8574 15.9171 5.46296 14.6737 5.81824C14.5282 5.83838 14.3899 5.7981 14.2704 5.72331C13.8785 5.47591 13.8309 4.91925 14.1493 4.58267C14.9979 3.68656 17.3188 3.60888 18.3489 3.3773L18.3302 1.21973C12.203 1.70159 7.01223 6.22818 4.74748 11.8005C4.28935 12.9397 3.96807 14.0846 3.3846 15.1735C3.84418 15.0613 4.41036 14.9678 4.85265 14.8024C5.82223 5.22275 17.0638 5.10049 16.6057 17.6633C17.182 16.8665 18.1847 16.4263 19.2104 16.3688C20.2348 16.4263 21.2375 16.8665 21.8137 17.6633C21.3556 5.10049 32.5972 5.22275 33.5668 14.8024C34.0091 14.9678 34.5753 15.0613 35.0348 15.1735C34.4514 14.0846 34.1301 12.9397 33.672 11.8005C31.4072 6.22818 26.2164 1.70159 20.0893 1.21973L20.0705 3.3773Z" fill="white"/>
</mask>
<g mask="url(#mask0_188_1297)">
<path d="M19.1691 -16.8443L-21.9849 24.2441L19.1691 65.3326L60.323 24.2441L19.1691 -16.8443Z" fill="url(#paint0_linear_188_1297)"/>
</g>
<path d="M33.7524 21.1528C31.2514 24.8279 25.1761 26.7568 19.2117 26.7697C13.2473 26.7568 7.17335 24.8279 4.6709 21.1528C5.23853 20.7788 5.79895 20.5717 6.46022 20.4236C6.77717 20.6767 8.1242 21.4793 8.49878 21.5182C6.03378 20.1805 4.48073 17.81 4.73861 14.9577C4.72853 11.2783 7.56954 7.41913 11.553 7.91681C15.6445 8.6921 16.9325 13.8645 16.6631 17.436C17.3186 16.6636 19.7389 15.4856 21.7732 17.436C21.5038 13.8645 22.7817 8.6921 26.8732 7.91681C30.8566 7.41913 33.6977 11.2783 33.6876 14.9577C33.9455 17.81 32.391 20.179 29.9274 21.5182C30.3005 21.4793 31.6476 20.6767 31.9645 20.4236C32.6258 20.5717 33.1877 20.7788 33.7538 21.1528" fill="#FEFEFE"/>
<path d="M16.4078 17.9826C16.4151 17.5598 16.6312 17.17 16.9611 16.9039C17.5056 16.4637 18.1078 16.2638 18.8786 16.2206C19.8338 16.1674 20.8365 16.4263 21.5626 17.0722C21.6 17.1052 21.6361 17.1383 21.6706 17.1743C21.8882 17.39 22.0034 17.6878 22.0078 17.9927C22.0078 17.9956 22.0078 17.9985 22.0078 18.0013C22.0135 18.2933 21.9084 18.5781 21.7182 18.8011C21.4445 19.1233 21.116 19.3822 20.7457 19.6123C20.1205 20.0007 19.4693 20.2797 18.7201 20.0899C18.0099 19.9101 16.9308 19.2887 16.5735 18.6357C16.4482 18.4084 16.405 18.197 16.4078 17.9841" fill="#353535"/>
<path d="M21.2819 18.1796C19.6295 17.0692 17.663 17.6374 17.1313 18.1293C17.1313 18.1293 19.0316 15.1475 21.2819 18.1796Z" fill="#757575"/>
<path d="M27.1712 9.42867C27.7374 9.39271 28.2892 9.48045 28.8078 9.71347C29.6376 10.086 30.2326 10.7275 30.5597 11.569C30.1404 11.2036 29.7284 10.8973 29.2371 10.634C27.857 10.0069 26.7693 10.4355 25.3848 10.7736C25.4525 10.6556 25.5202 10.5348 25.598 10.4226C25.9913 9.84868 26.5027 9.56676 27.1726 9.43011" fill="#353535"/>
<path d="M10.4193 9.42709C10.5259 9.41846 10.6311 9.41127 10.7377 9.40983C11.4148 9.39545 12.0098 9.55223 12.5083 10.0312C12.6913 10.2067 13.0183 10.5088 13.0212 10.7705C12.9924 10.7907 12.9679 10.8266 12.9333 10.831C12.8829 10.8381 12.5054 10.6281 12.4305 10.5965C11.5157 10.2024 10.6167 10.2527 9.67882 10.5332C9.02043 10.8036 8.20501 11.0668 7.84484 11.7256C7.83619 11.7415 7.82755 11.7587 7.81891 11.776L7.76416 11.7127C7.77857 11.4437 7.85204 11.2567 7.99323 11.0266C8.52772 10.1592 9.45119 9.65867 10.4193 9.42853" fill="#353535"/>
<path d="M7.00627 13.2993C6.98611 13.8416 6.57119 14.4112 6.51644 14.9837C6.39975 16.1977 6.685 17.4678 7.47161 18.4185C8.42966 19.575 9.62975 20.0525 11.092 20.1978L10.7059 20.2597C9.53754 20.2812 8.27983 19.9144 7.36356 19.1737C6.57551 18.5365 6.14331 17.5958 6.03814 16.6004C6.0295 16.5271 6.02373 16.4537 6.01941 16.3803C6.01509 16.307 6.01221 16.2336 6.01221 16.1603C6.01221 16.0869 6.01221 16.0135 6.01509 15.9402C6.01797 15.8668 6.02229 15.7935 6.0295 15.7201C6.0367 15.6468 6.0439 15.5734 6.05399 15.5015C6.06407 15.4281 6.0756 15.3562 6.09 15.2843C6.10297 15.2124 6.11882 15.1404 6.13611 15.0685C6.15339 14.9966 6.17212 14.9261 6.19229 14.8556C6.21246 14.7852 6.23551 14.7147 6.26 14.6456C6.2845 14.5766 6.31043 14.5076 6.3378 14.4385C6.36517 14.3709 6.39399 14.3033 6.42568 14.2357C6.45594 14.1695 6.48907 14.1034 6.52365 14.0372C6.55822 13.9725 6.5928 13.9078 6.63026 13.8445C6.66772 13.7812 6.70661 13.7179 6.74695 13.6575C6.78729 13.5956 6.82907 13.5352 6.87229 13.4762C6.91551 13.4173 6.96017 13.3583 7.00627 13.3008" fill="#353535"/>
<path d="M22.4547 22.0979C22.0556 26.0448 16.0393 25.9197 15.9688 22.0979C17.0838 25.0106 21.3237 24.6424 22.4547 22.0979Z" fill="#353535"/>
<path d="M29.2115 21.7842C30.8006 21.2836 31.9532 19.9646 31.9532 19.9646C32.891 20.2451 34.3173 21.3713 34.7913 22.2229C33.8304 23.5577 32.1894 24.694 30.7675 25.5182C29.2793 26.3827 27.6066 26.8343 25.9412 27.2212C21.5976 28.2296 18.3416 28.3849 13.9476 27.601C12.9175 27.4169 11.8932 27.2256 10.8818 26.9537C8.56088 26.3294 6.57275 25.4017 4.70707 23.8655C4.20283 23.4498 3.67122 23.0039 3.34131 22.4314C3.72597 21.9179 4.13656 21.5094 4.66961 21.1527C4.66961 21.1527 6.69088 24.6998 14.4057 26.3424C17.8403 26.8904 21.5169 26.9436 24.9154 26.1353C25.6055 25.9713 26.2942 25.7901 26.9598 25.5455C28.5978 24.9457 31.5498 23.5001 32.4487 22.0071C32.5265 21.8791 32.5943 21.7468 32.6519 21.6087C31.7817 21.403 31.2271 21.3095 29.2101 21.7827" fill="#DADAD4"/>
<path d="M26.0707 12.5773C26.4929 12.4593 26.9366 12.4263 27.3717 12.478C31.3292 12.9513 31.698 19.4686 27.3385 19.9605C22.9603 20.2252 22.2169 13.6503 26.0707 12.5773Z" fill="#353535"/>
<path d="M25.8144 13.7826C25.9916 13.7337 26.1774 13.7178 26.3604 13.7423C27.8875 13.9379 28.0229 16.33 26.3546 16.5587C24.5466 16.7313 24.2325 14.2242 25.8158 13.784" fill="#FEFEFE"/>
<path d="M27.0749 17.8402C27.6498 17.5669 28.2606 16.8549 28.9593 17.0807H28.9637C29.125 17.1339 29.2316 17.2936 29.2071 17.4619C29.1639 17.751 28.9738 18.0559 28.8138 18.2702C28.8138 18.2702 28.8124 18.2717 28.811 18.2731C28.6914 18.4342 28.5473 18.5766 28.3903 18.7003C27.8745 19.1045 27.2867 19.3605 26.6024 19.3174C26.0189 19.2814 25.2597 18.9707 24.8808 18.5032C24.7684 18.3652 24.6748 18.1782 24.7151 17.9969C24.7756 17.7251 25.0119 17.6071 25.241 17.4921H25.2438C25.421 17.4014 25.6314 17.4043 25.8028 17.5036C26.2235 17.7481 26.5246 18.1005 27.0749 17.8387" fill="#757575"/>
<path d="M10.9063 19.9605C6.54676 19.4686 6.91558 12.9527 10.8731 12.478C11.3082 12.4263 11.7519 12.4593 12.1741 12.5773C16.0279 13.6503 15.2845 20.2252 10.9063 19.9605Z" fill="#353535"/>
<path d="M11.8916 16.5572C10.2233 16.33 10.3587 13.9379 11.8858 13.7409C12.0674 13.7179 12.2546 13.7323 12.4319 13.7826C14.0152 14.2227 13.7011 16.7299 11.893 16.5572" fill="#FEFEFE"/>
<path d="M12.442 17.5051C12.6135 17.4058 12.8238 17.403 13.001 17.4921H13.0039C13.2315 17.6086 13.4692 17.7266 13.5297 17.9984C13.5701 18.1811 13.4764 18.3667 13.3641 18.5048C12.9866 18.9722 12.2259 19.2815 11.6424 19.3189C10.9581 19.362 10.3718 19.106 9.85456 18.7018C9.69609 18.5781 9.55346 18.4357 9.43389 18.2746C9.43389 18.2746 9.43245 18.2732 9.43245 18.2717C9.27253 18.0574 9.08236 17.7525 9.03914 17.4634C9.01465 17.2951 9.12126 17.1354 9.28262 17.0836H9.28694C9.98711 16.8564 10.598 17.5684 11.1728 17.8417C11.7217 18.1034 12.0242 17.7496 12.4449 17.5051" fill="#757575"/>
<path d="M26.4538 29.2381C26.4538 29.2381 21.6103 30.2234 19.2303 32.8714C19.2231 32.8772 19.2173 32.8844 19.213 32.8916C19.2072 32.8844 19.2015 32.8786 19.1943 32.8714C16.8143 30.2234 11.9707 29.2381 11.9707 29.2381C14.7599 28.3333 18.6771 28.8742 18.9796 28.8986C19.2893 28.8727 23.669 28.3348 26.4524 29.2381" fill="#FEFEFE"/>
<path d="M4.66362 35.6906C5.34074 35.7409 6.20658 35.7236 6.8693 35.9523C7.01048 36.0012 7.13582 36.0933 7.21794 36.2184C7.27845 36.3119 7.31158 36.4112 7.30726 36.5579C7.30438 36.7104 7.25828 36.8254 7.15311 36.9376C6.76989 37.2282 6.10141 37.28 5.66921 37.2498C5.36955 37.2296 5.07133 37.1778 4.77455 37.1318C5.29608 37.6281 6.24116 37.7618 7.25107 37.5015C7.12141 37.8165 6.97158 38.0883 6.73099 38.3329C6.34057 38.7284 5.83489 38.9586 5.27447 38.9542C5.23845 38.9542 5.20099 38.9542 5.16497 38.9514C5.12896 38.9499 5.09294 38.9471 5.05548 38.9427C5.01947 38.9384 4.98345 38.9341 4.94743 38.9284C4.91142 38.9226 4.8754 38.9154 4.84082 38.9082C4.8048 38.901 4.77023 38.8924 4.73421 38.8823C4.69964 38.8723 4.66362 38.8622 4.62904 38.8521C4.59447 38.8406 4.55989 38.8291 4.52675 38.8162C4.49218 38.8032 4.45904 38.7888 4.42591 38.7744C4.39277 38.7601 4.35964 38.7442 4.32794 38.7284C4.29481 38.7126 4.26311 38.6953 4.23142 38.6766C4.19972 38.6594 4.16803 38.6392 4.13777 38.6205C4.10752 38.6004 4.07726 38.5803 4.04701 38.5601C4.0182 38.5386 3.98794 38.517 3.96057 38.494C3.93175 38.4709 3.90438 38.4479 3.87701 38.4249C3.84964 38.4005 3.82226 38.376 3.79633 38.3516C3.7704 38.3257 3.74447 38.2998 3.71998 38.2739C3.23447 37.7489 3.01548 36.9952 3.05726 36.2889C3.09184 35.6906 3.34252 35.1181 3.80642 34.7283C4.27608 34.3342 4.92582 34.2162 5.52514 34.2737C6.37658 34.3543 6.7843 34.8606 7.1776 35.4547C7.1776 35.4547 5.85362 35.1411 4.66218 35.6934" fill="#FEFEFE"/>
<path d="M44.5387 17.8575C45.1323 16.8176 45.9434 16.0078 46.9735 15.4281C48.0021 14.847 49.1547 14.5579 50.4325 14.5579C51.928 14.5579 53.2375 14.9405 54.3613 15.7057C55.485 16.4709 56.2716 17.5296 56.7182 18.8816H53.6323C53.3254 18.2444 52.8947 17.7655 52.3386 17.4461C51.7825 17.1268 51.1399 16.9672 50.4124 16.9672C49.633 16.9672 48.94 17.1484 48.3335 17.5123C47.7269 17.8762 47.253 18.3897 46.9158 19.0528C46.5773 19.7159 46.4073 20.4941 46.4073 21.3873C46.4073 22.2805 46.5773 23.0429 46.9158 23.7117C47.2544 24.382 47.7269 24.8984 48.3335 25.2623C48.94 25.6262 49.633 25.8075 50.4124 25.8075C51.1414 25.8075 51.7825 25.6449 52.3386 25.3199C52.8947 24.9948 53.3254 24.5129 53.6323 23.8757H56.7182C56.2702 25.2407 55.4879 26.3037 54.3699 27.0617C53.2519 27.8212 51.9395 28.1995 50.4311 28.1995C49.1532 28.1995 47.9992 27.9089 46.972 27.3293C45.9434 26.7496 45.1323 25.9412 44.5373 24.9085C43.9437 23.8757 43.6455 22.702 43.6455 21.3873C43.6455 20.0726 43.9423 18.8975 44.5373 17.8561" fill="white"/>
<path d="M69.0417 17.4849V28.0858H66.339V26.7466C65.9946 27.2055 65.5437 27.5665 64.9876 27.8283C64.4315 28.0901 63.8279 28.221 63.1767 28.221C62.3454 28.221 61.6121 28.0455 60.9724 27.6945C60.3328 27.3435 59.8314 26.8272 59.4684 26.1439C59.1039 25.4621 58.9224 24.648 58.9224 23.7044V17.4849H61.6049V23.3218C61.6049 24.1633 61.8152 24.8106 62.2374 25.2636C62.6595 25.7167 63.2343 25.9426 63.9619 25.9426C64.6894 25.9426 65.2844 25.7167 65.7065 25.2636C66.1286 24.8106 66.339 24.1633 66.339 23.3218V17.4849H69.0417Z" fill="white"/>
<path d="M75.7209 17.81C76.277 17.4907 76.9124 17.3311 77.6284 17.3311V20.1445H76.9195C76.0768 20.1445 75.44 20.343 75.0121 20.7371C74.5842 21.1327 74.3696 21.8217 74.3696 22.8041V28.0859H71.687V17.485H74.3696V19.1305C74.7153 18.5695 75.1648 18.1294 75.7209 17.81Z" fill="white"/>
<path d="M79.6117 15.7718C79.2977 15.4727 79.1421 15.0987 79.1421 14.6528C79.1421 14.2069 79.2977 13.8329 79.6117 13.5323C79.9244 13.2331 80.3177 13.0835 80.7902 13.0835C81.2628 13.0835 81.6561 13.2331 81.9687 13.5323C82.2813 13.8329 82.4384 14.2054 82.4384 14.6528C82.4384 15.1001 82.2813 15.4727 81.9687 15.7718C81.6561 16.071 81.2628 16.2221 80.7902 16.2221C80.3177 16.2221 79.9244 16.071 79.6117 15.7718ZM82.1128 28.0858H79.4302V17.485H82.1128V28.0858Z" fill="white"/>
<path d="M86.7133 27.578C85.895 27.1249 85.2539 26.4848 84.7871 25.6549C84.3203 24.8264 84.0869 23.8698 84.0869 22.7839C84.0869 21.6979 84.3261 20.7428 84.8058 19.9143C85.2856 19.0858 85.9396 18.4443 86.7709 17.9912C87.6007 17.5381 88.5271 17.3123 89.55 17.3123C90.5728 17.3123 91.4978 17.5395 92.329 17.9912C93.1589 18.4443 93.8144 19.0858 94.2941 19.9143C94.7739 20.7442 95.013 21.7008 95.013 22.7839C95.013 23.867 94.7667 24.8249 94.2754 25.6549C93.7827 26.4848 93.1185 27.1249 92.2815 27.578C91.4445 28.0311 90.508 28.2569 89.4736 28.2569C88.4392 28.2569 87.5316 28.0311 86.7133 27.578ZM90.8437 25.5686C91.2716 25.3327 91.613 24.9788 91.8695 24.5071C92.1245 24.0353 92.2527 23.4613 92.2527 22.7853C92.2527 21.777 91.9876 21.0031 91.4574 20.4609C90.9273 19.9186 90.2789 19.6482 89.5125 19.6482C88.7461 19.6482 88.1035 19.9186 87.5863 20.4609C87.0691 21.0031 86.8098 21.7784 86.8098 22.7853C86.8098 23.7922 87.0619 24.5689 87.5662 25.1097C88.0704 25.652 88.7072 25.9224 89.4736 25.9224C89.9591 25.9224 90.4158 25.8045 90.8437 25.5686Z" fill="white"/>
<path d="M107.009 17.4849V28.0858H104.307V26.7466C103.962 27.2055 103.511 27.5665 102.955 27.8283C102.399 28.0901 101.796 28.221 101.144 28.221C100.313 28.221 99.5799 28.0455 98.9402 27.6945C98.3006 27.3435 97.7992 26.8272 97.4362 26.1439C97.0717 25.4621 96.8901 24.648 96.8901 23.7044V17.4849H99.5727V23.3218C99.5727 24.1633 99.783 24.8106 100.205 25.2636C100.627 25.7167 101.202 25.9426 101.93 25.9426C102.657 25.9426 103.252 25.7167 103.673 25.2636C104.095 24.8106 104.305 24.1633 104.305 23.3218V17.4849H107.008H107.009Z" fill="white"/>
<path d="M111.379 27.788C110.689 27.4759 110.143 27.0516 109.739 26.515C109.337 25.9785 109.117 25.3859 109.078 24.7358H111.781C111.831 25.1443 112.033 25.4823 112.384 25.7498C112.736 26.0174 113.174 26.1511 113.697 26.1511C114.22 26.1511 114.607 26.049 114.894 25.8448C115.182 25.6405 115.325 25.3787 115.325 25.0608C115.325 24.7156 115.149 24.4581 114.798 24.2855C114.446 24.1129 113.887 23.9245 113.121 23.7217C112.328 23.5304 111.68 23.3319 111.176 23.1291C110.67 22.9248 110.236 22.6127 109.872 22.1913C109.507 21.7698 109.326 21.2031 109.326 20.4882C109.326 19.9013 109.496 19.3663 109.833 18.8815C110.172 18.3968 110.657 18.0142 111.29 17.7337C111.922 17.4532 112.665 17.3123 113.523 17.3123C114.788 17.3123 115.796 17.6287 116.551 18.2602C117.304 18.8916 117.719 19.7431 117.797 20.8147H115.228C115.189 20.3933 115.014 20.0596 114.701 19.8107C114.388 19.5619 113.969 19.4382 113.446 19.4382C112.961 19.4382 112.586 19.5274 112.325 19.7057C112.063 19.8841 111.932 20.1329 111.932 20.4522C111.932 20.809 112.111 21.0808 112.468 21.2649C112.825 21.4505 113.381 21.6375 114.136 21.8302C114.903 22.0215 115.535 22.22 116.034 22.4228C116.532 22.6271 116.963 22.9421 117.327 23.3707C117.692 23.7979 117.879 24.3632 117.892 25.0637C117.892 25.6765 117.722 26.2245 117.385 26.7092C117.047 27.194 116.561 27.5737 115.929 27.8484C115.296 28.1232 114.558 28.2598 113.714 28.2598C112.87 28.2598 112.066 28.103 111.376 27.7909" fill="white"/>
<path d="M122.056 27.578C121.237 27.1249 120.596 26.4848 120.129 25.6549C119.663 24.8264 119.429 23.8698 119.429 22.7839C119.429 21.6979 119.668 20.7428 120.148 19.9143C120.626 19.0858 121.282 18.4443 122.113 17.9912C122.943 17.5381 123.869 17.3123 124.892 17.3123C125.915 17.3123 126.84 17.5395 127.671 17.9912C128.503 18.4443 129.157 19.0858 129.636 19.9143C130.115 20.7442 130.355 21.7008 130.355 22.7839C130.355 23.867 130.109 24.8249 129.618 25.6549C129.126 26.4848 128.461 27.1249 127.625 27.578C126.788 28.0311 125.852 28.2569 124.817 28.2569C123.783 28.2569 122.875 28.0311 122.057 27.578M126.185 25.5686C126.612 25.3327 126.954 24.9788 127.21 24.5071C127.465 24.0353 127.594 23.4613 127.594 22.7853C127.594 21.777 127.328 21.0031 126.798 20.4609C126.268 19.9186 125.62 19.6482 124.853 19.6482C124.087 19.6482 123.444 19.9186 122.927 20.4609C122.41 21.0031 122.151 21.7784 122.151 22.7853C122.151 23.7922 122.403 24.5689 122.908 25.1097C123.413 25.652 124.049 25.9224 124.816 25.9224C125.301 25.9224 125.758 25.8045 126.186 25.5686" fill="white"/>
<path d="M134.781 25.885H139.515V28.0858H131.734V25.9224L136.372 19.6842H131.753V17.4849H139.458V19.6468L134.781 25.885Z" fill="white"/>
<path d="M144.038 25.885H148.772V28.0858H140.991V25.9224L145.63 19.6842H141.009V17.4849H148.714V19.6468L144.038 25.885Z" fill="white"/>
<path d="M161 17.4849L154.426 33.1H151.571L153.87 27.8182L149.616 17.4849H152.625L155.365 24.8897L158.145 17.4849H161Z" fill="white"/>
<path d="M44.3947 33.8697H45.6236V34.4608H43.6484V30.7397H44.3947V33.8697Z" fill="white"/>
<path d="M49.8953 33.208H47.7329C47.7502 33.4209 47.8251 33.5877 47.9576 33.7086C48.0887 33.8294 48.2515 33.8898 48.4431 33.8898C48.7212 33.8898 48.9185 33.7704 49.0352 33.5331H49.842C49.757 33.8179 49.5928 34.0509 49.3507 34.2336C49.1087 34.4162 48.8119 34.5083 48.459 34.5083C48.1737 34.5083 47.9187 34.445 47.6925 34.3184C47.4663 34.1919 47.2906 34.0135 47.1638 33.7819C47.037 33.5503 46.9736 33.2842 46.9736 32.9822C46.9736 32.6801 47.0356 32.4083 47.1609 32.1767C47.2848 31.9451 47.4606 31.7682 47.6839 31.643C47.9086 31.5193 48.1665 31.4561 48.459 31.4561C48.7514 31.4561 48.992 31.5165 49.2153 31.6373C49.4372 31.7581 49.6101 31.9293 49.7325 32.1522C49.855 32.3737 49.9169 32.6298 49.9169 32.9175C49.9169 33.0239 49.9097 33.1203 49.8953 33.2051M49.1419 32.7074C49.1375 32.5161 49.0684 32.3622 48.933 32.2457C48.7975 32.1307 48.6319 32.0731 48.4359 32.0731C48.2501 32.0731 48.0945 32.1292 47.9691 32.2414C47.8424 32.3536 47.766 32.509 47.7372 32.7074H49.1419Z" fill="white"/>
<path d="M51.5175 32.1794C51.6371 31.9478 51.7984 31.7709 52.003 31.6457C52.2076 31.522 52.4366 31.4587 52.6888 31.4587C52.9092 31.4587 53.1022 31.5033 53.2679 31.5925C53.4336 31.6817 53.5661 31.7939 53.6655 31.9291V31.5076H54.419V34.4621H53.6655V34.0306C53.569 34.1687 53.4365 34.2837 53.2679 34.3743C53.0979 34.465 52.9034 34.511 52.683 34.511C52.4338 34.511 52.2061 34.4463 52.0016 34.3182C51.797 34.1902 51.6342 34.0104 51.516 33.7774C51.3965 33.5444 51.3374 33.2769 51.3374 32.9748C51.3374 32.6727 51.3965 32.4109 51.516 32.1808M53.5589 32.5174C53.4869 32.3879 53.3918 32.2887 53.2708 32.2182C53.1498 32.1492 53.0201 32.1146 52.8804 32.1146C52.7406 32.1146 52.6138 32.1477 52.4957 32.2153C52.3776 32.2829 52.2825 32.3822 52.2105 32.5116C52.137 32.6411 52.101 32.795 52.101 32.9734C52.101 33.1517 52.137 33.3071 52.2105 33.4394C52.2839 33.5732 52.379 33.6753 52.4986 33.7458C52.6182 33.8163 52.7449 33.8522 52.8804 33.8522C53.0158 33.8522 53.1483 33.8177 53.2708 33.7486C53.3918 33.6796 53.4883 33.5804 53.5589 33.4509C53.6295 33.3214 53.6655 33.1661 53.6655 32.9849C53.6655 32.8036 53.6295 32.6483 53.5589 32.5188" fill="white"/>
<path d="M57.342 31.5984C57.4961 31.5092 57.6733 31.4646 57.8736 31.4646V32.2485H57.6762C57.4414 32.2485 57.2642 32.3032 57.1446 32.4139C57.025 32.5247 56.966 32.716 56.966 32.9893V34.4608H56.2183V31.5078H56.966V31.9666C57.0625 31.8098 57.1878 31.6875 57.342 31.5984Z" fill="white"/>
<path d="M61.9377 31.7984C62.1552 32.0199 62.2633 32.3306 62.2633 32.729V34.4622H61.5155V32.8311C61.5155 32.5967 61.4565 32.4154 61.3398 32.2903C61.2216 32.1637 61.0617 32.1004 60.8586 32.1004C60.6555 32.1004 60.4898 32.1637 60.3702 32.2903C60.2506 32.4169 60.1916 32.5967 60.1916 32.8311V34.4622H59.4438V31.5092H60.1916V31.8775C60.291 31.7495 60.4192 31.6488 60.5733 31.5768C60.7275 31.5035 60.8975 31.4675 61.0833 31.4675C61.4363 31.4675 61.7201 31.5783 61.9377 31.8012" fill="white"/>
<path d="M64.0916 31.0302C64.0051 30.9467 63.9604 30.8432 63.9604 30.718C63.9604 30.5929 64.0051 30.4893 64.0916 30.4059C64.1794 30.3225 64.2889 30.2808 64.42 30.2808C64.5511 30.2808 64.6621 30.3225 64.7485 30.4059C64.8364 30.4893 64.8796 30.5929 64.8796 30.718C64.8796 30.8432 64.8364 30.9467 64.7485 31.0302C64.6621 31.1136 64.5526 31.1553 64.42 31.1553C64.2875 31.1553 64.1794 31.1136 64.0916 31.0302ZM64.7888 34.4607H64.0411V31.5077H64.7888V34.4607Z" fill="white"/>
<path d="M69.0881 31.7984C69.3056 32.0199 69.4136 32.3306 69.4136 32.729V34.4622H68.6659V32.8311C68.6659 32.5967 68.6069 32.4154 68.4902 32.2903C68.372 32.1637 68.2121 32.1004 68.009 32.1004C67.8058 32.1004 67.6402 32.1637 67.5206 32.2903C67.401 32.4169 67.342 32.5967 67.342 32.8311V34.4622H66.5942V31.5092H67.342V31.8775C67.4414 31.7495 67.5696 31.6488 67.7237 31.5768C67.8779 31.5035 68.0493 31.4675 68.2337 31.4675C68.5867 31.4675 68.8705 31.5783 69.0881 31.8012" fill="white"/>
<path d="M72.9329 31.5898C73.1 31.6761 73.2326 31.7898 73.3277 31.9278V31.5064H74.0811V34.481C74.0811 34.7543 74.0264 34.9988 73.9155 35.2146C73.8045 35.4289 73.6389 35.6 73.4184 35.7266C73.198 35.8532 72.93 35.9165 72.6174 35.9165C72.1967 35.9165 71.8524 35.8187 71.5845 35.6231C71.315 35.4274 71.1638 35.1613 71.1278 34.8233H71.8697C71.9086 34.9585 71.9936 35.0664 72.1233 35.1455C72.2529 35.2261 72.4114 35.2649 72.5958 35.2649C72.8133 35.2649 72.9891 35.2002 73.1245 35.0707C73.26 34.9413 73.3277 34.7442 73.3277 34.481V34.0221C73.2311 34.1602 73.0986 34.2767 72.93 34.3688C72.76 34.4608 72.567 34.5069 72.3509 34.5069C72.1017 34.5069 71.874 34.4421 71.668 34.3141C71.462 34.1861 71.2992 34.0063 71.1796 33.7733C71.06 33.5403 71.001 33.2727 71.001 32.9707C71.001 32.6686 71.06 32.4068 71.1796 32.1767C71.2992 31.9451 71.4606 31.7682 71.6651 31.643C71.8697 31.5193 72.0988 31.4561 72.3509 31.4561C72.5713 31.4561 72.7658 31.4992 72.9329 31.5869M73.2211 32.5176C73.149 32.3881 73.0539 32.2889 72.9329 32.2184C72.8119 32.1494 72.6822 32.1148 72.5425 32.1148C72.4028 32.1148 72.276 32.1479 72.1578 32.2155C72.0397 32.2831 71.9446 32.3824 71.8726 32.5118C71.7991 32.6413 71.7631 32.7952 71.7631 32.9736C71.7631 33.1519 71.7991 33.3073 71.8726 33.4396C71.9461 33.5734 72.0411 33.6755 72.1607 33.746C72.2803 33.8164 72.4071 33.8524 72.5425 33.8524C72.6779 33.8524 72.8105 33.8179 72.9329 33.7488C73.0539 33.6798 73.1505 33.5805 73.2211 33.4511C73.2917 33.3216 73.3277 33.1663 73.3277 32.9851C73.3277 32.8038 73.2917 32.6485 73.2211 32.519" fill="white"/>
<path d="M80.1421 34.4608L79.3194 33.011H78.9665V34.4608H78.2188V30.7397H79.6177C79.9058 30.7397 80.1521 30.7901 80.3538 30.8922C80.557 30.9929 80.7082 31.131 80.8105 31.3022C80.9114 31.4748 80.9632 31.6675 80.9632 31.8804C80.9632 32.1263 80.8926 32.3464 80.75 32.5449C80.6074 32.742 80.3956 32.8786 80.1147 32.9534L81.0065 34.4623H80.1406L80.1421 34.4608ZM78.9665 32.4514H79.5917C79.7949 32.4514 79.9461 32.4025 80.0455 32.3047C80.1449 32.2069 80.1954 32.0717 80.1954 31.8962C80.1954 31.7207 80.1449 31.5927 80.0455 31.4992C79.9461 31.4043 79.7949 31.3582 79.5917 31.3582H78.9665V32.4514Z" fill="white"/>
<path d="M85.4393 33.208H83.2768C83.2941 33.4209 83.369 33.5877 83.5016 33.7086C83.6341 33.8294 83.7955 33.8898 83.9871 33.8898C84.2651 33.8898 84.4625 33.7704 84.5792 33.5331H85.386C85.301 33.8179 85.1367 34.0509 84.8947 34.2336C84.6527 34.4162 84.3559 34.5083 84.0029 34.5083C83.7177 34.5083 83.4627 34.445 83.2365 34.3184C83.0103 34.1919 82.8345 34.0135 82.7077 33.7819C82.581 33.5503 82.5176 33.2842 82.5176 32.9822C82.5176 32.6801 82.5795 32.4083 82.7049 32.1767C82.8288 31.9451 83.0045 31.7682 83.2278 31.643C83.4526 31.5193 83.7105 31.4561 84.0029 31.4561C84.2954 31.4561 84.536 31.5165 84.7593 31.6373C84.9811 31.7581 85.154 31.9293 85.2765 32.1522C85.3989 32.3737 85.4609 32.6298 85.4609 32.9175C85.4609 33.0239 85.4537 33.1203 85.4393 33.2051M84.6858 32.7074C84.6815 32.5161 84.6123 32.3622 84.4769 32.2457C84.3415 32.1307 84.1758 32.0731 83.9799 32.0731C83.794 32.0731 83.6384 32.1292 83.5131 32.2414C83.3863 32.3536 83.3099 32.509 83.2811 32.7074H84.6858Z" fill="white"/>
<path d="M87.0619 32.1796C87.1815 31.948 87.3443 31.7711 87.5503 31.646C87.7564 31.5222 87.9869 31.459 88.239 31.459C88.4306 31.459 88.615 31.5007 88.7893 31.5841C88.9636 31.6675 89.1019 31.7783 89.2057 31.9178V30.5154H89.9635V34.4609H89.2057V34.0236C89.1135 34.1689 88.9838 34.2868 88.8152 34.376C88.6481 34.4652 88.4536 34.5098 88.2332 34.5098C87.984 34.5098 87.7564 34.445 87.5503 34.317C87.3443 34.189 87.1815 34.0092 87.0619 33.7762C86.9424 33.5432 86.8833 33.2756 86.8833 32.9736C86.8833 32.6715 86.9424 32.4097 87.0619 32.1796ZM89.1034 32.5176C89.0313 32.3882 88.9363 32.2889 88.8152 32.2184C88.6942 32.1494 88.5646 32.1149 88.4248 32.1149C88.2851 32.1149 88.1583 32.1479 88.0402 32.2156C87.922 32.2832 87.8269 32.3824 87.7549 32.5119C87.6814 32.6413 87.6454 32.7952 87.6454 32.9736C87.6454 33.1519 87.6814 33.3073 87.7549 33.4396C87.8284 33.5734 87.9235 33.6755 88.043 33.746C88.1626 33.8165 88.2894 33.8524 88.4248 33.8524C88.5603 33.8524 88.6928 33.8179 88.8152 33.7489C88.9363 33.6798 89.0328 33.5806 89.1034 33.4511C89.174 33.3217 89.21 33.1663 89.21 32.9851C89.21 32.8039 89.174 32.6485 89.1034 32.5191" fill="white"/>
<path d="M94.491 33.208H92.3286C92.3459 33.4209 92.4208 33.5877 92.5533 33.7086C92.6844 33.8294 92.8472 33.8898 93.0388 33.8898C93.3169 33.8898 93.5142 33.7704 93.6309 33.5331H94.4377C94.3527 33.8179 94.1885 34.0509 93.9465 34.2336C93.7044 34.4162 93.4076 34.5083 93.0547 34.5083C92.7694 34.5083 92.5144 34.445 92.2882 34.3184C92.0621 34.1919 91.8863 34.0135 91.7595 33.7819C91.6327 33.5503 91.5693 33.2842 91.5693 32.9822C91.5693 32.6801 91.6313 32.4083 91.7566 32.1767C91.8805 31.9451 92.0563 31.7682 92.2796 31.643C92.5043 31.5193 92.7622 31.4561 93.0547 31.4561C93.3471 31.4561 93.5877 31.5165 93.811 31.6373C94.0329 31.7581 94.2058 31.9293 94.3282 32.1522C94.4507 32.3737 94.5126 32.6298 94.5126 32.9175C94.5126 33.0239 94.5054 33.1203 94.491 33.2051M93.7376 32.7074C93.7332 32.5161 93.6641 32.3622 93.5287 32.2457C93.3932 32.1307 93.2276 32.0731 93.0316 32.0731C92.8458 32.0731 92.6902 32.1292 92.5648 32.2414C92.4381 32.3536 92.3617 32.509 92.3329 32.7074H93.7376Z" fill="white"/>
<path d="M97.4822 32.1205H96.9636V34.4608H96.2058V32.1205H95.8687V31.5078H96.2058V31.3582C96.2058 30.9957 96.3095 30.7296 96.5155 30.5584C96.7215 30.3873 97.0342 30.3082 97.4505 30.3182V30.9468C97.269 30.9439 97.1422 30.9741 97.0716 31.0374C96.9996 31.1007 96.965 31.2172 96.965 31.3841V31.5063H97.4837V32.1191L97.4822 32.1205Z" fill="white"/>
<path d="M99.0872 31.0302C98.9993 30.9467 98.9561 30.8432 98.9561 30.718C98.9561 30.5929 98.9993 30.4893 99.0872 30.4059C99.1736 30.3225 99.2831 30.2808 99.4142 30.2808C99.5453 30.2808 99.6562 30.3225 99.7427 30.4059C99.8305 30.4893 99.8738 30.5929 99.8738 30.718C99.8738 30.8432 99.8305 30.9467 99.7427 31.0302C99.6562 31.1136 99.5467 31.1553 99.4142 31.1553C99.2816 31.1553 99.1736 31.1136 99.0872 31.0302ZM99.783 34.4607H99.0353V31.5077H99.783V34.4607Z" fill="white"/>
<path d="M104.082 31.7984C104.299 32.0199 104.407 32.3306 104.407 32.729V34.4622H103.66V32.8311C103.66 32.5967 103.601 32.4154 103.484 32.2903C103.367 32.1651 103.206 32.1004 103.003 32.1004C102.8 32.1004 102.634 32.1637 102.514 32.2903C102.395 32.4169 102.336 32.5967 102.336 32.8311V34.4622H101.588V31.5092H102.336V31.8775C102.435 31.7495 102.562 31.6488 102.717 31.5768C102.872 31.5035 103.043 31.4675 103.227 31.4675C103.58 31.4675 103.864 31.5783 104.082 31.8012" fill="white"/>
<path d="M108.915 33.208H106.753C106.77 33.4209 106.845 33.5877 106.978 33.7086C107.109 33.8294 107.272 33.8898 107.463 33.8898C107.741 33.8898 107.939 33.7704 108.055 33.5331H108.862C108.777 33.8179 108.613 34.0509 108.371 34.2336C108.129 34.4162 107.832 34.5083 107.479 34.5083C107.194 34.5083 106.939 34.445 106.713 34.3184C106.486 34.1919 106.311 34.0135 106.184 33.7819C106.057 33.5503 105.994 33.2842 105.994 32.9822C105.994 32.6801 106.056 32.4083 106.181 32.1767C106.305 31.9451 106.481 31.7682 106.704 31.643C106.929 31.5193 107.187 31.4561 107.479 31.4561C107.771 31.4561 108.012 31.5165 108.235 31.6373C108.457 31.7581 108.63 31.9293 108.753 32.1522C108.875 32.3737 108.937 32.6298 108.937 32.9175C108.937 33.0239 108.93 33.1203 108.915 33.2051M108.162 32.7074C108.158 32.5161 108.088 32.3622 107.953 32.2457C107.818 32.1307 107.652 32.0731 107.456 32.0731C107.27 32.0731 107.115 32.1292 106.989 32.2414C106.862 32.3536 106.786 32.509 106.757 32.7074H108.162Z" fill="white"/>
<path d="M110.538 32.1796C110.657 31.948 110.82 31.7711 111.026 31.646C111.232 31.5222 111.462 31.459 111.715 31.459C111.906 31.459 112.091 31.5007 112.265 31.5841C112.439 31.6675 112.578 31.7783 112.681 31.9178V30.5154H113.439V34.4609H112.681V34.0236C112.589 34.1689 112.459 34.2868 112.291 34.376C112.124 34.4652 111.929 34.5098 111.709 34.5098C111.46 34.5098 111.232 34.445 111.026 34.317C110.82 34.189 110.657 34.0092 110.538 33.7762C110.418 33.5432 110.359 33.2756 110.359 32.9736C110.359 32.6715 110.418 32.4097 110.538 32.1796ZM112.579 32.5176C112.508 32.3882 112.412 32.2889 112.291 32.2184C112.17 32.1494 112.04 32.1149 111.9 32.1149C111.761 32.1149 111.634 32.1479 111.516 32.2156C111.399 32.2832 111.303 32.3824 111.23 32.5119C111.157 32.6413 111.121 32.7952 111.121 32.9736C111.121 33.1519 111.157 33.3073 111.23 33.4396C111.304 33.5719 111.399 33.6755 111.519 33.746C111.638 33.8165 111.765 33.8524 111.9 33.8524C112.036 33.8524 112.168 33.8179 112.291 33.7489C112.412 33.6798 112.508 33.5806 112.579 33.4511C112.65 33.3217 112.686 33.1663 112.686 32.9851C112.686 32.8039 112.65 32.6485 112.579 32.5191" fill="white"/>
</g>
<defs>
<linearGradient id="paint0_linear_188_1297" x1="3.54033" y1="40.7336" x2="39.346" y2="4.87092" gradientUnits="userSpaceOnUse">
<stop stop-color="#0AD0FF"/>
<stop offset="0.36" stop-color="#3D62ED"/>
<stop offset="0.67" stop-color="#FE6D99"/>
<stop offset="1" stop-color="#FDC057"/>
</linearGradient>
<clipPath id="clip0_188_1297">
<rect width="161" height="49" fill="white"/>
</clipPath>
</defs>
</svg>
