<svg width="46" height="38" viewBox="0 0 46 38" fill="none" xmlns="http://www.w3.org/2000/svg">
<path d="M45 1.02011C45 1.02011 40.964 3.40411 38.72 4.08011C37.5155 2.69513 35.9147 1.7135 34.1341 1.26796C32.3535 0.822432 30.479 0.934503 28.7642 1.58902C27.0493 2.24353 25.5769 3.40891 24.546 4.92754C23.515 6.44617 22.9754 8.24478 23 10.0801V12.0801C19.4853 12.1712 16.0025 11.3917 12.862 9.811C9.72149 8.23027 7.02063 5.89738 5 3.02011C5 3.02011 -3 21.0201 15 29.0201C10.8811 31.816 5.97431 33.218 1 33.0201C19 43.0201 41 33.0201 41 10.0201C41 9.46411 40.944 8.90811 40.84 8.36011C42.88 6.34811 45 1.02011 45 1.02011Z" stroke="white" stroke-linecap="round" stroke-linejoin="round"/>
</svg>
