<svg width="46" height="46" viewBox="0 0 46 46" fill="none" xmlns="http://www.w3.org/2000/svg">
<path d="M23 42C33.4934 42 42 33.4934 42 23C42 12.5066 33.4934 4 23 4C12.5066 4 4 12.5066 4 23C4 25.8026 4.62078 28.4772 5.73502 30.8892L4 42L15.1108 40.265C17.5228 41.3792 20.1974 42 23 42Z" stroke="white" stroke-linecap="round" stroke-linejoin="round"/>
<path d="M30 28.5C30 29.0523 29.5523 29.5 29 29.5H17C16.4477 29.5 16 29.0523 16 28.5V24.5C16 23.9477 16.4477 23.5 17 23.5H29C29.5523 23.5 30 23.9477 30 24.5V28.5Z" stroke="white" stroke-linecap="round" stroke-linejoin="round"/>
<path d="M30 19.5C30 20.0523 29.5523 20.5 29 20.5H17C16.4477 20.5 16 20.0523 16 19.5V15.5C16 14.9477 16.4477 14.5 17 14.5H29C29.5523 14.5 30 14.9477 30 15.5V19.5Z" stroke="white" stroke-linecap="round" stroke-linejoin="round"/>
</svg>
