<svg width="32" height="32" viewBox="0 0 32 32" fill="none" xmlns="http://www.w3.org/2000/svg">
<path d="M2.66672 16C2.66672 23.3638 8.63626 29.3333 16.0001 29.3333C23.3638 29.3333 29.3334 23.3638 29.3334 16C29.3334 8.63621 23.3638 2.66667 16.0001 2.66667C8.63625 2.66667 2.66672 8.63621 2.66672 16Z" stroke="white" stroke-width="0.973736" stroke-linecap="round" stroke-linejoin="round"/>
<path d="M17.3334 2.73242C17.3334 2.73242 21.3334 7.99992 21.3334 15.9999C21.3334 23.9999 17.3334 29.2674 17.3334 29.2674" stroke="white" stroke-width="0.973736" stroke-linecap="round" stroke-linejoin="round"/>
<path d="M14.6666 29.2674C14.6666 29.2674 10.6666 23.9999 10.6666 15.9999C10.6666 7.99992 14.6666 2.73242 14.6666 2.73242" stroke="white" stroke-width="0.973736" stroke-linecap="round" stroke-linejoin="round"/>
<path d="M3.50515 20.6666H28.4929" stroke="white" stroke-width="0.973736" stroke-linecap="round" stroke-linejoin="round"/>
<path d="M3.50515 11.3333H28.4929" stroke="white" stroke-width="0.973736" stroke-linecap="round" stroke-linejoin="round"/>
</svg>
